<?xml version="1.0" standalone="no"?>
<!DOCTYPE svg PUBLIC "-//W3C//DTD SVG 20010904//EN"
 "http://www.w3.org/TR/2001/REC-SVG-20010904/DTD/svg10.dtd">
<svg version="1.0" xmlns="http://www.w3.org/2000/svg"
 width="260.000000pt" height="260.000000pt" viewBox="0 0 260.000000 260.000000"
 preserveAspectRatio="xMidYMid meet">
<metadata>
Created by potrace 1.11, written by Peter Selinger 2001-2013
</metadata>
<g transform="translate(0.000000,260.000000) scale(0.100000,-0.100000)"
fill="#000000" stroke="none">
<path d="M262 2591 c2 -8 -46 -117 -158 -358 -19 -41 -34 -76 -34 -78 0 -2
-16 -38 -35 -79 -19 -42 -35 -78 -35 -80 0 -2 37 -22 83 -44 45 -22 249 -122
452 -222 204 -100 469 -230 589 -289 l220 -107 -218 -118 c-120 -64 -270 -145
-334 -178 -64 -34 -121 -64 -127 -68 -5 -4 -59 -33 -120 -65 -60 -32 -123 -66
-140 -75 -16 -10 -75 -41 -130 -70 -55 -30 -113 -61 -129 -70 l-29 -16 0 -319
c1 -176 2 -328 2 -337 1 -17 67 -18 1236 -18 679 0 1235 3 1236 8 1 10 1 633
0 652 -1 13 -66 15 -531 12 -291 -1 -530 0 -530 2 0 2 53 32 118 67 64 34 135
72 157 84 22 12 151 81 287 154 136 73 249 135 252 139 2 4 -18 53 -45 110
-27 57 -49 109 -49 115 0 7 23 63 51 125 28 62 50 115 48 116 -2 2 -74 37
-159 79 -362 175 -524 257 -515 258 6 0 216 1 468 1 l457 1 0 337 0 337 -1169
0 c-644 0 -1169 -3 -1169 -6z"/>
</g>
</svg>
